<svg style="display:none" xmlns="http://www.w3.org/2000/svg">
  <defs>
    <symbol id="fb" viewBox="0 0 96 96"> <!-- Facebook -->
      <path d="M73.099,15.973l-9.058,0.004c-7.102,0-8.477,3.375-8.477,8.328v10.921h16.938l-0.006,17.106H55.564v43.895H37.897V52.332 h-14.77V35.226h14.77V22.612C37.897,7.972,46.84,0,59.9,0L73.1,0.021L73.099,15.973L73.099,15.973z"/>
    </symbol>
    <symbol id="linkedin" viewBox="0 0 310 310"> <!-- LinkedIn -->
      <path id="XMLID_802_" d="M72.16,99.73H9.927c-2.762,0-5,2.239-5,5v199.928c0,2.762,2.238,5,5,5H72.16c2.762,0,5-2.238,5-5V104.73
          C77.16,101.969,74.922,99.73,72.16,99.73z"/>
      <path id="XMLID_803_" d="M41.066,0.341C18.422,0.341,0,18.743,0,41.362C0,63.991,18.422,82.4,41.066,82.4
          c22.626,0,41.033-18.41,41.033-41.038C82.1,18.743,63.692,0.341,41.066,0.341z"/>
      <path id="XMLID_804_" d="M230.454,94.761c-24.995,0-43.472,10.745-54.679,22.954V104.73c0-2.761-2.238-5-5-5h-59.599
          c-2.762,0-5,2.239-5,5v199.928c0,2.762,2.238,5,5,5h62.097c2.762,0,5-2.238,5-5v-98.918c0-33.333,9.054-46.319,32.29-46.319
          c25.306,0,27.317,20.818,27.317,48.034v97.204c0,2.762,2.238,5,5,5H305c2.762,0,5-2.238,5-5V194.995
          C310,145.43,300.549,94.761,230.454,94.761z"/>
    </symbol>
    <symbol id="de" viewBox="0 0 5 3"> <!-- Germany -->
      <rect id="black_stripe" width="5" height="3" y="0" x="0" fill="#000"/>
      <rect id="red_stripe" width="5" height="2" y="1" x="0" fill="#D00"/>
      <rect id="gold_stripe" width="5" height="1" y="2" x="0" fill="#FFCE00"/>
    </symbol>
    <symbol id="en" viewBox="0 0 60 30"> <!-- United Kingdom -->
      <clipPath id="t">
        <path d="M30,15 h30 v15 z v15 h-30 z h-30 v-15 z v-15 h30 z"/>
      </clipPath>
      <path d="M0,0 v30 h60 v-30 z" fill="#00247d"/>
      <path d="M0,0 L60,30 M60,0 L0,30" stroke="#fff" stroke-width="6"/>
      <path d="M0,0 L60,30 M60,0 L0,30" clip-path="url(#t)" stroke="#cf142b" stroke-width="4"/>
      <path d="M30,0 v30 M0,15 h60" stroke="#fff" stroke-width="10"/>
      <path d="M30,0 v30 M0,15 h60" stroke="#cf142b" stroke-width="6"/>
    </symbol>
    <symbol id="pl" viewBox="0 0 16 10"> <!-- Poland -->
      <rect width="16" height="10" fill="#fff"/>
      <rect width="16" height="5" fill="#dc143c" y="5"/>
    </symbol>
    <symbol id="ru" viewBox="0 0 9 6"> <!-- Russia -->
      <rect fill="#fff" width="9" height="3"/>
      <rect fill="#d52b1e" y="3" width="9" height="3"/>
      <rect fill="#0039a6" y="2" width="9" height="2"/>
    </symbol>
    <symbol id="hamburger" viewBox="0 0 32 32">
      <path d="M4,10h24c1.104,0,2-0.896,2-2s-0.896-2-2-2H4C2.896,6,2,6.896,2,
               8S2.896,10,4,10z M28,14H4c-1.104,0-2,0.896-2,2 s0.896,2,2,
               2h24c1.104,0,2-0.896,2-2S29.104,14,28,14z M28,22H4c-1.104,0-2,
               0.896-2,2s0.896,2,2,2h24c1.104,0,2-0.896,2-2 S29.104,22,28,22z" />
    </symbol>
    <symbol id="map" viewBox="0 0 300 300">
      <path d="M271.484,0H27.839c-4.599,0-8.325,3.727-8.325,8.325c0,6.974,0,269.981,0,282.673c0,4.598,3.726,8.325,8.325,8.325
              c10.271,0,233.346,0,243.645,0c4.599,0,8.325-3.727,8.325-8.325c0-30.114,0-253.252,0-282.673C279.809,3.727,276.083,0,271.484,0
              z M185.603,16.739h33.3v31.932c-10.914-3.412-22.394-4.52-33.3-3.588V16.739z M67.566,282.673H36.164V155.211h31.402V282.673z
               M117.516,282.673h-33.3V146.886c0-4.598-3.726-8.325-8.325-8.325H36.164v-33.3h74.2c-7.988,25.095-2.988,44.247,7.152,68.641
              V282.673z M36.164,88.611V16.65h132.789v31.533c-21.532,6.249-40.114,20.878-51.275,40.428H36.164z M134.166,282.673v-73.776
              c12.616,24.106,28.657,50.812,43.468,73.776H134.166z M263.159,282.673h-54.664c18.587-28.82,40.351-65.379,54.664-96.378
              V282.673z M193.062,275.835c-17.864-27.611-70.085-111.505-70.085-144.322c0-39.051,31.834-70.096,70.085-70.096
              c38.703,0,70.096,31.391,70.096,70.096C263.159,164.328,210.973,248.154,193.062,275.835z M263.159,80.422
              c-7.121-9.746-16.579-18.335-27.606-24.548V16.65h27.606V80.422z"/>
          <path d="M193.062,92.541c-21.485,0-38.961,17.485-38.961,38.972c0,21.744,17.762,38.961,38.961,38.961
              c21.18,0,38.972-17.178,38.972-38.961C232.034,110.023,214.552,92.541,193.062,92.541z M193.062,153.824
              c-12.128,0-22.311-9.86-22.311-22.311c0-12.309,10.01-22.322,22.311-22.322c12.307,0,22.322,10.012,22.322,22.322
              C215.384,143.993,205.18,153.824,193.062,153.824z"/>
    </symbol>
    <symbol id="phone" viewBox="0 0 1000 1000">
      <path d="M730.5,990c-63.2,0-144.9-42.1-202.2-77.5c-76.8-47.3-159.5-112.8-233-184.3l-0.3-0.3l-23.3-23.3c-71.5-73.4-137-156.2-184.3-233C52.1,414.3,10,332.7,10,269.5c0-67.7,48.4-139.5,69.2-167.2C95.4,80.6,152.1,10,200.3,10c19.8,0,41.1,12.9,69.1,42c24.8,25.7,48.5,57.6,64.1,79.9c20.9,29.9,40.3,61.2,54.5,88.1c23,43.6,25.7,62.3,25.7,72.6c0,20.7-10.8,38.7-32.2,53.4c-14.1,9.7-30.9,17-47.3,24.1c-11,4.8-28.6,12.4-35.3,17.7c2.3,9.9,12.6,33.8,40.2,74.4c25.7,37.8,59,78.8,89.1,109.6c30.9,30.1,71.8,63.4,109.6,89.1c40.6,27.6,64.5,37.8,74.4,40.2c5.3-6.7,12.9-24.3,17.7-35.3c7.1-16.3,14.4-33.2,24.1-47.3c14.7-21.4,32.7-32.2,53.4-32.2c10.3,0,29,2.7,72.6,25.7c26.9,14.2,58.2,33.6,88.1,54.5c22.3,15.6,54.2,39.3,79.9,64.1c29,28,42,49.3,42,69.1c0,48.2-70.6,104.9-92.3,121.1C870,941.6,798.2,990,730.5,990L730.5,990z M333.6,688.2c71.4,69.6,151.7,133.1,225.9,178.9c72,44.4,135.5,69.8,174.3,69.8c34.5,0,83.7-21.1,131.6-56.4c21-15.5,40.1-32.7,53.8-48.5c12.9-14.8,17.6-24.5,18.8-28.4c-5-10.7-34.5-44-103.4-91.6c-27-18.6-55-35.8-78.7-48.2c-29.8-15.6-42.2-18.4-45-18.8c-1.1,0.8-4.3,3.5-9.3,11.7c-5.5,9.3-10.8,21.5-15.9,33.4c-6.3,14.6-12.8,29.7-20.8,41.9c-13,19.8-29,29.9-47.5,29.9c-0.3,0-0.7,0-1,0c-9-0.2-36.4-0.8-110.9-51.5c-41.1-28-85.7-64.3-119.4-97.1l-0.5-0.5c-32.8-33.7-69.1-78.3-97.1-119.4c-50.7-74.4-51.3-101.9-51.5-110.9c-0.4-18.8,9.5-35.1,29.6-48.4c12.2-8.1,27.5-14.7,42.2-21c11.9-5.1,24.1-10.4,33.4-15.9c8.3-4.9,11-8.2,11.7-9.3c-0.4-2.8-3.1-15.2-18.8-45c-12.5-23.7-29.6-51.6-48.2-78.7c-47.5-68.9-80.9-98.4-91.6-103.4c-3.9,1.2-13.6,5.9-28.4,18.8c-15.8,13.7-33,32.8-48.5,53.8c-35.3,47.9-56.4,97.1-56.4,131.6c0,38.7,25.4,102.2,69.8,174.3c45.8,74.3,109.3,154.5,178.9,225.9L333.6,688.2L333.6,688.2z"/>
    </symbol>
    <symbol id="mail" viewBox="0 0 1000 1000">
      <path d="M498.7,570.8c-6,0-12.1-1.7-17.5-5.5l-458-315.7c-13.9-9.5-17.5-28.6-7.8-42.5c9.5-13.9,28.6-17.5,42.5-7.7L498.5,503l440.5-303.6c13.9-9.8,33.1-6.2,42.5,7.7c9.5,13.9,6.2,33.1-7.8,42.5l-458,315.7c-5.1,3.6-11.1,5.5-17.4,5.5H498.7z"/><path d="M959.5,806.2H40.9c-16.9,0-30.5-13.7-30.5-30.6V224.4c0-16.9,13.7-30.5,30.5-30.5h918.6c16.9,0,30.5,13.7,30.5,30.5v551.1C990,792.5,976.3,806.2,959.5,806.2z M71.4,745h857.4V255.1H71.4V745z"/>
    </symbol>
  </defs>
</svg>
